# xmcd CD database file
#
# Track frame offsets:
#	150
#	21730
#	40942
#	51315
#	67115
#	83545
#	106157
#	126987
#	137442
#	151890
#
# Disc length: 2375 seconds
#
# Revision: 1
# Processed by: cddbd v1.5.1PL2 Copyright (c) Steve Scherf et al.
# Submitted via: CDex 1.51
#
DISCID=8509450a
DTITLE=Memphis Slim with Matthew Murphy - Memphis Slim with Matthew Murphy
DYEAR=1900
DGENRE=Blues
TTITLE0=Honky Tonk (Instrumental)
TTITLE1=Stormy Monday Blues (Vocal)
TTITLE2=Pigalle And Love (Vocal)
TTITLE3=How Lomg Blues (Vocal)
TTITLE4=Jamboree Jump (Instrumental)
TTITLE5=Murphy's Calling (Instrumental)
TTITLE6=I Got The Blues Everywhere (Vocal)
TTITLE7=All By Myself (Vocal)
TTITLE8=Boogie In The Barnyard (Instrumental)
TTITLE9=In The Evening (Vocal)
EXTD=
EXTT0=
EXTT1=
EXTT2=
EXTT3=
EXTT4=
EXTT5=
EXTT6=
EXTT7=
EXTT8=
EXTT9=
PLAYORDER=
